<?xml version="1.0" encoding="UTF-8"?>
<svg id="Livello_1" data-name="Livello 1" xmlns="http://www.w3.org/2000/svg" viewBox="0 0 607.01 608.35">
  <defs>
    <style>
      .cls-1, .cls-2 {
        fill: #fff;
      }

      .cls-3 {
        fill: #562519;
      }

      .cls-4 {
        fill: #e36517;
      }

      .cls-2 {
        font-family: DoppioOne-Regular, 'Doppio One';
        font-size: 54.3px;
      }
    </style>
  </defs>
  <g>
    <polyline class="cls-4" points="124.03 389.96 39.94 401.52 84.09 355.8 15.77 355.8 69.9 319.01 0 311.12 62.01 281.17 0 262.77 62.01 243.33 7.36 214.95 70.42 206.54 18.92 167.65 87.24 171.33 42.04 128.76 108.79 140.85 70.95 89.87 136.64 113.52 110.36 56.76 166.07 89.34 154.51 31.53 201.28 70.95 201.28 13.66 240.7 56.23 251.74 4.2 282.22 54.13 303.77 0 325.84 48.35 357.37 3.15 365.26 56.76 405.2 12.61 405.2 69.37 453.55 32.58 443.04 88.29 497.17 57.28 474.04 111.42 531.33 89.34 502.42 137.17 565.49 127.71 522.92 170.28 589.14 166.6 537.64 203.39 601.75 210.22 542.36 239.65 601.75 254.89 548.67 272.76 607.01 303.2 546.04 309.55 594.39 346.34 532.38 345.81 574.95 390.48 495.07 381.02"/>
    <circle class="cls-1" cx="304.36" cy="296.74" r="222.5"/>
    <circle class="cls-4" cx="304.36" cy="292.7" r="201.32"/>
  </g>
  <path class="cls-3" d="M300.6,299.88c3.55-2.59.92-8.48,5.96-15.42,2.1-2.89,2.85-2.28,4.55-4.91,4.52-6.98.54-13.36,3.33-15.59,3.45-2.76,14.96,2.6,22.6,11.39,7.26,8.36,6.68,14.84,16.29,23.3,3.87,3.4,5.88,5.12,8.93,5.26,6.64.3,9.31-7.27,19.97-9.99,3.49-.89,6.76-1.72,8.93,0,4.57,3.62-2.14,13.37,2.1,19.45,4.04,5.78,12.71.67,25.23,4.73,15.57,5.05,13.75,16.72,28.38,21.55,14.81,4.89,27.48-3.5,31.01,2.1,3.03,4.82-5.81,11.85-2.63,17.87,3.84,7.26,19.44,2.22,24.18,10.51,2.66,4.66-1.6,7.41,1.05,12.61,4.46,8.75,19.48,6.87,21.55,14.72.77,2.93-.94,4.64.53,6.31,2.64,3,8.69-1.97,14.72.53,5.65,2.34,4.1,8.28,10.1,12.53,5.77,4.08,10.08.63,18.45,2.89,11,2.97,21,13.65,19.27,19.27-2.47,8.03-28.84,5.75-29.43,11.56-.26,2.61,4.98,3.89,5.26,7.88.32,4.5-5.93,8.91-10.51,11.04-18.22,8.47-39.04-5.63-43.09.7-1.19,1.85-.42,4.63,0,6.13,1.73,6.25,7.92,7.22,7.88,10.51-.06,4.47-11.55,7.8-13.66,8.41-11.22,3.24-18.88,1.18-19.85,4.07-.56,1.65,1.77,2.91,5.66,8.55,4.19,6.07,6.76,9.78,5.78,12.61-1.76,5.1-14.88,6.75-25.23,4.73-7.92-1.55-10.42-4.51-14.19-2.8-4.74,2.15-3.45,8.04-7.88,16.47-.39.74-7.41,13.67-20.5,18.39-11.31,4.08-17.67-1.38-23.47,4.03-4.05,3.78-1.8,7.23-5.96,16.47-2.15,4.76-6.94,15.41-14.72,17.34-11.4,2.83-20.12-15.34-28.98-12.18-7.51,2.68-4.05,16.75-14.47,22.87-5.15,3.02-13.12,3.76-18.57.35-8.91-5.59-5.26-18.68-14.72-23.82-4.04-2.2-8.21-1.71-10.86-1.4-12.71,1.49-14.54,12.51-26.45,14.19-4.94.69-12.12-.14-15.59-4.73-3.49-4.62-2.13-11.61-1.23-16.29,1.59-8.18,4.62-9.96,3.33-12.44-2.07-3.97-10.75-1.07-28.73-2.1-14.4-.83-20.49-3.35-22.42-4.2-4.11-1.81-10.21-4.5-14.72-10.86-4.68-6.6-5.31-13.86-5.78-19.27-.67-7.76,2.2-10.49,0-14.19-2.61-4.38-8.71-5.19-13.14-5.78-14.26-1.89-23.34,5.01-29.08,0-.57-.5-1.96-1.71-2.45-3.68-1-4,3.41-6.23,2.63-9.99-.81-3.91-4.75-7.42-8.93-8.41-6.21-1.47-9.88,3.36-13.66,1.05-2.56-1.56-3.83-5.58-2.63-7.88,1.59-3.05,8.15-1.26,8.93-3.68.42-1.32-1.12-2.88-1.4-3.15-3.03-2.95-8.5-1.77-12.61-1.05-9.73,1.71-17.89,3.14-24.88,1.4-9.22-2.3-16.61-10.2-15.42-13.66,1.16-3.37,9.96-1.08,12.26-5.61,1.81-3.57-1.4-9.45-4.91-12.96-8.32-8.35-18.75-3.85-23.47-11.21-2.34-3.65-2.48-8.95-.53-12.61,3.47-6.53,11.13-3.61,23.65-10.51,10.33-5.69,8.98-9.81,17.87-12.61,7.56-2.38,11.29-.28,16.29-4.2,3.51-2.75,3.4-5.15,5.47-7.98.18-.24,1.13-1.29,2.41-2.53,3.68-3.56,8.8-8.51,15.42-9.81,1.91-.38,5.24-.02,11.91.7,7.54.81,9.15,1.58,10.51.35,3.28-2.96-2.23-10.87,1.4-14.72,1.68-1.78,4.36-1.67,8.51-1.55,8.51.24,10.23,3.56,14.79,2.95,2.59-.34,5.47-1.87,14.19-14.72,8.93-13.15,6.86-12.94,10.51-16.82,7.48-7.95,21.75-14.75,34.69-12.09,6.95,1.43,11.57,5.18,15.24,2.63,3.06-2.13,3.13-7.11,3.15-8.93.12-9.08-6.59-13.58-4.73-16.82,1.66-2.88,8.59-2.09,12.26-1.23,9.27,2.18,10.73,7.81,21.9,12.26,5.16,2.05,9.59,3.82,12.44,1.75Z"/>
  <g id="Fiore_e_Foglie" data-name="Fiore e Foglie">
    <path class="cls-1" d="M306.56,337.54c-7.77-13.77.2-29.71,2.12-33.57,2.43-4.86,8.31-16.64,16.27-16.36,8.25.29,13.37,13.34,15.77,19.45,1.93,4.91,6.46,16.45,1.98,29.57-2.9,8.48-9.61,17.77-13.01,16.68-6.19-1.99,1.55-37.44-4.55-39-1.05-.27-2.09.58-2.8,1.16-8.72,7.14,2.25,29.99-2.63,32.58-2.77,1.47-9.55-4.16-13.14-10.51Z"/>
    <path class="cls-1" d="M290.26,358.56c-15.36-5.03-20.88-26.83-22.07-31.53-1.73-6.82-4.55-17.98,0-21.02,4.94-3.3,15.58,4.94,17.34,6.31,18.86,14.6,22.94,42.98,19.45,44.67-.98.48-2.72-1.08-4.73-2.89-2.81-2.52-4.66-5.52-6.83-10.77-3.92-9.49-3.73-13.88-6.83-14.77-1.39-.4-3.32-.06-4.76.8,0,0-1.72,1.03-2.59,2.93-2.91,6.32,18.46,23.33,16.29,26.54-.81,1.19-4.53-.02-5.26-.26Z"/>
    <path class="cls-1" d="M349.13,344.37c-2.9-2.19.14-11.14,2.1-15.5,6.22-13.84,21.47-25.81,27.59-22.34,4.33,2.45,5.1,13.01.26,19.97-.56.8-4.69,7.47-9.99,6.83-1.58-.19-4-1.12-4.47-2.89-.97-3.68,7.39-7.66,6.41-9.92-.53-1.21-3.48-1.39-5.62-.59-2.23.83-3.45,2.93-5.78,7.09-2.06,3.67-3.09,5.51-3.42,7.88-.56,4.07,1.05,5.65-.26,7.62-1.41,2.12-5.15,3.11-6.83,1.84Z"/>
    <path class="cls-1" d="M428.75,400.34c-1.46-3.51,6.58-10.41,12.09-13.93,13.61-8.69,35.51-11.87,40.2-3.94,4.61,7.8-9.06,23.54-17.08,30.48-4.03,3.49-15,12.98-22.34,9.2-3.16-1.63-5.93-5.87-5.26-9.72,1.67-9.58,23.7-11.34,23.27-17.11-.11-1.43-1.56-2.67-2.77-3.12-5.61-2.11-11.34,10.56-21.81,10.51-.82,0-5.37-.1-6.31-2.36Z"/>
    <path class="cls-1" d="M200.05,387.12c-7.56-7.19-16.01-7.26-16.2-11.21-.07-1.39.9-2.88,2.1-3.42,2.85-1.28,6.18,3.16,14.8,8.67,9.56,6.12,12.54,5.18,13.58,4.73,1.57-.69,3.24-2.31,3.42-4.2.09-.89.11-4.67-12.79-11.04-8.2-4.05-27.34-13.49-32.93-7.01-3.93,4.55.96,14.49,2.45,17.52,4.81,9.78,13.96,15.71,22.42,17.17,1.61.28,7.45,1.28,8.76-1.05,1.38-2.46-2.86-7.54-5.61-10.16Z"/>
    <path class="cls-1" d="M439.52,374.07c-1.76-.97-1.03-7.58,2.1-12.09,4.09-5.87,13.67-10.15,18.66-6.31,5.05,3.89,3.99,15.01-1.84,19.97-5.42,4.61-14.24,3.29-14.72,1.58-.34-1.25,3.78-2.56,9.46-8.67,1.33-1.44,4.62-4.97,3.9-5.95-.51-.7-2.93.02-4.69.96-3.9,2.08-3.91,4.94-8.41,8.41-1.7,1.31-3.46,2.66-4.47,2.1Z"/>
    <path class="cls-1" d="M481.83,410.07c-1-2.75,7.52-10.48,16.82-10.77,2.03-.06,6.81-.22,9.46,3.15.19.24,2.07,2.71,1.58,5.78-.69,4.3-5.49,6.47-9.2,8.15-4.52,2.04-10.65,3.47-11.3,2.1-.94-1.97,10.29-8.29,9.2-10.51-.42-.86-2.52-.76-3.68-.53-3.07.62-3.58,3.02-6.31,3.94-2.51.85-6.03.16-6.57-1.31Z"/>
    <path class="cls-1" d="M502.32,426.88c-1.75-.94-2.82-3.41-2.36-5.26,1.69-6.82,25.53-9.84,29.17-3.15,1.48,2.73-.7,6.51-2.1,8.93-4.02,6.96-13.1,12.63-18.39,9.72-2.19-1.2-4.02-4.03-3.42-6.31,1.22-4.57,15.85-.88,17.08-4.73.43-1.34-.77-3.36-2.36-4.2-5.15-2.73-12.78,7.59-17.61,4.99Z"/>
    <path class="cls-1" d="M535.96,429.77c-1.87-1.46-2.54-4.91-1.31-6.83,3.87-6.08,29.12-.96,29.96,5.78.84,6.76-22.54,18.28-29.17,12.61-1.93-1.65-2.79-5.08-1.58-6.83,2.98-4.3,17.1,3.25,20.23-1.31,1.03-1.49.74-4.07-.53-5.26-3.5-3.28-13.21,5.28-17.61,1.84Z"/>
    <path class="cls-1" d="M517.39,446.84c-1.46-.91-3.34-2.71-2.98-4.19.39-1.66,3.42-2.22,4.2-2.36,9.03-1.65,21.34,8.28,19.97,13.66-.47,1.83-2.44,2.66-6.04,4.2-1.75.75-6.25,2.46-18.39,2.1-9.85-.29-10.94-1.54-11.3-2.36-.74-1.71.5-4.39,2.36-5.78,1.61-1.2,3.61-1.38,14.72.26,5.1.75,7.67,1.24,8.15.26.39-.8-.78-2.3-1.84-3.15-2.81-2.28-5.45-.53-8.84-2.64Z"/>
    <path class="cls-1" d="M437.26,461.34c2.21,5.88,15.85,5.59,20.39,5.49,17.02-.36,44.34-7.22,45.2-19.45.66-9.38-14.58-17.22-18.39-19.18-16.04-8.26-37.25-7.78-39.94-1.31-.77,1.85-.18,4.55,1.31,5.78,3.24,2.67,9.08-2.97,17.87-1.05,2.33.51,5.56,1.7,5.52,2.89-.05,1.4-4.61,2.52-7.88,2.89-8.51.97-13.31-2.56-15.77,0-1.06,1.11-1.51,3.17-.79,4.47,1.32,2.37,6.06,1.37,18.66,2.1,4.13.24,5.97.48,6.04,1.05.1.78-3.16,2.05-6.04,2.63-9.5,1.91-15.19-3.58-19.44-.34-1.19.91-2.58,2.74-2.1,4.02,1.69,4.59,25.63-2.22,27.07,1.84.52,1.46-1.94,4.15-4.73,5.52-9.64,4.74-21.53-7.1-26.01-2.89-1.47,1.37-1.56,3.92-.95,5.55Z"/>
    <path class="cls-1" d="M477.36,476.55c-3.34-.78-4.91-.67-5.52-1.84-.67-1.29.16-3.52,1.58-4.73,5.09-4.34,17.68,4.48,18.39,4.99,3.8,2.72,4.23,4.26,4.2,5.26-.06,2.26-2.58,3.84-4.47,4.99-.8.48-10.45,6.16-19.97,1.84-1.8-.82-4.92-2.29-6.04-5.52-.11-.31-1.08-3.09,0-3.94,1.71-1.35,5.84,4.34,12.61,4.47,3.47.06,6.83-1.34,6.83-2.36,0-1.39-6.22-2.83-7.62-3.15Z"/>
    <path class="cls-1" d="M408.25,471.82c-1.66,2.34,15.13,18.51,35.47,29.43,7.83,4.2,19.54,10.48,23.65,6.57,3.86-3.68-1-14.45-1.84-16.29-4.1-9.06-10.9-13.82-18.39-18.92-6.83-4.65-19.09-12.99-26.28-8.93-.39.22-2.68,1.51-2.63,3.15.08,2.44,5.29,3.05,12.09,7.09,1.62.97,11.26,6.71,10.25,10.77-.42,1.69-2.67,3-4.73,3.15-5.01.37-6.95-6.25-14.98-11.56-4.91-3.25-11.7-5.75-12.61-4.47Z"/>
    <path class="cls-1" d="M356.75,541.98c3.46,1.76,3.08,5.34,7.09,12.35.37.65,3.7,6.46,4.73,6.04.89-.36.21-5.44-1.58-9.99-2.18-5.56-5.1-7.98-3.94-10.51.7-1.54,2.43-2.05,2.63-2.1,3.72-1.03,8.39,3.6,10.51,7.62,2.43,4.6,1.86,9.05,1.31,13.4-.63,4.96-1.13,8.93-4.2,10.77-3.69,2.21-8.6-.13-9.99-.79-6.13-2.92-8.5-8.96-10.25-13.4-.79-2.02-4.45-11.33-1.31-13.66,1.38-1.03,3.67-.41,4.99.26Z"/>
    <path class="cls-1" d="M303.14,524.11c-1.96,1.87-1.9,4.8-1.84,6.57.37,10.59.56,15.88,1.84,19.97,4.84,15.44,9.44,30.13,18.39,31.01,8.9.87,16.81-12.4,18.66-15.5,2.57-4.31,3.82-11.28,6.31-25.23,1.65-9.26,2.03-14.35-1.05-18.13-1.45-1.78-3.89-3.55-5.26-2.89-1.41.69-.72,3.55-.79,12.61-.02,2.22-.09,5.93-.79,10.51-.57,3.7-1.03,6.7-2.1,6.83-1.32.17-3.67-3.98-4.2-8.41-.98-8.1,4.66-12.45,2.1-16.82-1.05-1.79-3.19-3.11-4.47-2.63-1.57.59-.97,3.58-1.84,11.82-.77,7.31-1.57,8.18-.79,11.3.5,2,1.25,3.29,1.58,6.31.3,2.73.52,4.73-.79,6.04-1.65,1.65-5.11,1.58-6.57,0-.91-.98-.51-1.98-.26-7.09.24-5.07-.18-3.31,0-9.2.09-2.95.22-3.91-.53-4.99-1.22-1.78-4.06-2.78-5.52-1.84-.94.6-.96,1.78-.79,8.41.09,3.68.07,7.36.26,11.04.21,4.11.38,5.14,0,5.26-.85.27-3.75-4.35-4.73-9.72-.55-3.01-.34-5.34,0-8.93.46-4.94,1.36-7.39,1.05-12.35-.21-3.35-.75-4.4-1.58-4.99-1.7-1.22-4.66-.52-6.31,1.05Z"/>
    <path class="cls-1" d="M289.48,519.64c-2.17,0-3.71,1.6-7.09,5.78-4.66,5.74-6.98,8.61-8.67,11.56-2.54,4.43-4.07,8.43-4.99,11.3-1.62,5.03-2.13,8.9-2.63,12.88-1.31,10.41-1.96,15.61.26,17.08,3.22,2.12,10.2-3.15,17.87-8.93,5.51-4.16,8.31-6.32,10.51-10.25,2.52-4.5,5.75-13.76,1.31-17.87-2.77-2.57-8.25-2.86-10.77-.53-2.35,2.18-.69,5.32-3.68,9.72-1.47,2.16-3.95,4.48-4.99,3.94-1.32-.68-.25-5.86,1.31-9.72.64-1.58,1.9-4.27,7.36-10.77,6.08-7.26,9.22-9.54,8.41-11.82-.55-1.54-2.64-2.37-4.2-2.36Z"/>
    <path class="cls-1" d="M189.62,464.2c-6.72,4.93-7.92,6.88-12.28,10.23-6.32,4.87-9.67,5.29-11.1,9.48-.31.9-1.28,3.76,0,5.78,2.61,4.11,12.78,1.84,21.81-.26,14.15-3.3,28.86-6.72,32.32-16.82.09-.27,1.55-4.63,0-5.78-1.87-1.38-6.22,3.28-17.34,9.2-3.47,1.84-7.53,3.77-12.88,4.99-.63.14-8.19,1.84-8.67.53-.55-1.49,8.3-6.37,11.04-7.88,6.51-3.59,9.22-4.19,9.46-6.31.28-2.44-2.88-5.45-6.04-5.78-2.23-.23-3.97.92-6.31,2.63Z"/>
    <path class="cls-1" d="M382.5,386.68c-1.37.16-4.63.54-5.26,2.36-.61,1.79,1.44,4.59,3.94,5.78,4.79,2.29,10.39-1.75,11.3-.26.59.97-1.36,3.42-2.36,4.47-1.92,2.01-3.51,2.18-3.68,3.42-.17,1.28,1.3,2.7,2.63,3.42,4.6,2.48,10.24-1.99,11.56-.26.68.9-.16,2.99-1.31,4.2-2.58,2.72-6.85,1.23-7.88,3.42-.38.8-.24,1.92.26,2.63,2.54,3.59,15.29-1.99,15.77-.79.23.57-2.31,2.62-5.52,3.68-4.6,1.52-8.08.19-9.2,2.1-.44.76-.4,1.86,0,2.63,2.22,4.23,16.18.34,16.55,1.84.16.64-2.24,2.08-4.99,2.89-6.88,2.03-11.23-1.2-13.66,1.31-1.18,1.21-1.64,3.49-.79,4.73,2.2,3.21,12.11-2.02,13.93.79.97,1.5-.53,5.03-2.89,6.04-3.53,1.51-6.98-3.44-10.51-1.84-2.03.92-3.33,3.68-2.63,4.99,1.18,2.2,7.43-.67,9.2,1.84,1.36,1.94-.42,6.38-2.63,6.83-2.29.47-3.8-3.61-5.78-3.15-2.56.59-4.4,8.46-1.58,10.77,2.3,1.89,6.97-.54,9.99-2.1,15.79-8.2,20.76-23.65,20.76-23.65.86-2.68,5.01-15.58-1.58-28.64-7.97-15.8-25.86-20.36-33.64-19.45Z"/>
    <path class="cls-1" d="M378.82,453.16c-1.16-.04-6.82-.13-11.56,4.2-5.4,4.93-5.29,11.64-5.26,12.61-.3.08-.79.17-1.37.12-2.43-.19-3.15-2.49-4.81-2.62-1.61-.13-3.64,1.79-4.06,3.81-.79,3.74,4.15,6.86,3.15,8.41-.61.95-3.05.65-4.73,0-4.12-1.58-4.28-5.43-7.09-5.78-2.26-.28-5.05,1.86-5.26,3.94-.3,3.09,5.22,4.71,4.73,6.83-.49,2.13-6.82,3.71-9.46,1.31-2.1-1.91-.55-5.15-2.89-6.83-1.47-1.06-3.91-1.1-5.26,0-1.93,1.58-.31,4.47-2.1,6.04-1.73,1.52-5.62.94-7.62-1.05-1.91-1.9-.99-4-2.89-5.26-1.52-1.01-4.08-.96-5.52.26-2.66,2.26.17,7.36-2.1,8.93-1.53,1.07-4.78.12-6.04-1.84-1.69-2.62,1.27-5.36-.26-8.15-1.6-2.92-7.06-3.92-8.93-2.1-1.59,1.54.02,4.46-1.31,5.26-1.4.84-5.14-1.23-6.04-4.2-.94-3.08,1.8-4.97,1.05-6.83-1.59-3.96-17.62-4.59-20.76,1.31-3.36,6.32,8.36,20.43,19.18,28.12,19.72,14.01,52.49,18.11,75.42,1.84,20.51-14.56,29-42.48,24.7-46.77-1.18-1.18-2.89-1.58-2.89-1.58Z"/>
    <path class="cls-1" d="M257.94,464.99c-7.58,6.35-25.73-4.65-27.59-5.78-5.18-3.14-16.29-9.88-21.28-24.18-1.09-3.13-5.61-16.06.26-28.64,10.37-22.22,45.46-26.84,49.93-20.23,1.17,1.73.78,5.03-.79,6.57-1.59,1.56-3.84.78-11.56,1.31-3.67.26-5.68.61-5.78,1.31-.14.95,3.34,1.38,3.94,3.68.4,1.54-.57,3.64-2.1,4.47-2.55,1.37-5.12-1.6-7.36-.26-1.79,1.07-2.41,4.34-1.31,5.52,1.39,1.5,4.96-.98,6.31.53.95,1.06.46,3.74-1.05,4.99-2.17,1.81-5.18-.39-6.83,1.31-1.17,1.21-1.22,3.92.26,5.26,1.23,1.1,3.18.97,4.35.35.71-.38,1.11-.92,1.17-.88.12.11-2.47,2.35-3.68,5.78-.66,1.88-.92,4.15-.26,4.47.86.41,2.35-2.91,4.2-2.63,1.41.21,2.76,2.47,2.36,4.2-.45,2-2.95,2.08-3.15,3.94-.14,1.3.91,2.81,2.1,3.15,1.21.35,1.99-.68,2.63-.26.81.53-.06,2.42,0,5.52.02.78.1,4.79,1.58,5.26,1.31.41,2.77-2.26,3.68-1.84,1.06.49-.9,4.15.53,6.31,2.18,3.3,10.05-.32,12.09,2.63,1.3,1.88-.08,6.01-2.63,8.15Z"/>
    <path class="cls-1" d="M289.74,373.02c-2.48-2.65-13.26.15-16.55,6.57-4.58,8.92,5.3,24.87,16.55,34.16,17.08,14.1,31.4,7.96,41.52,22.07,7.23,10.09,5.72,21.32,8.41,21.28,2.87-.03,8.39-12.82,4.63-23.86-2.01-5.88-5.82-8.84-37.74-30-9.69-6.42-17.82-11.77-18.13-19.65-.2-5.16,3.05-8.71,1.31-10.57Z"/>
    <path class="cls-1" d="M330.47,407.96c-.11-3.37,9.08-2.85,14.98-10.77,6.75-9.07,1.87-19.37,6.83-21.81,3.94-1.93,11.28,2.48,14.19,8.15,5.17,10.05-2.47,26.19-14.19,30.22-9.79,3.36-21.69-1.97-21.81-5.78Z"/>
    <path class="cls-1" d="M360.42,452.11c.15-.04,0-.61.23-1.8,0,0,.51-2.52,2.4-4.51,2.18-2.3,3.93-1.25,6.83-3.15,2.94-1.93,5.1-5.61,4.2-7.09-1.1-1.82-6.22.57-7.36-1.31-.83-1.37.71-4.56,3.15-5.78,3.6-1.81,6.91,1.79,8.93.53,3.84-2.4.81-20.93-6.57-22.6-6.51-1.47-15.99,10.24-17.87,21.55-2.09,12.61,5.33,24.36,6.04,24.18Z"/>
    <path class="cls-1" d="M262.41,405.07c6.57-.07,7.11,8.92,17.34,18.13,15.85,14.27,31.29,7.77,40.73,22.34,1.12,1.73,5.73,8.84,2.89,13.4-2.95,4.73-12.79,4.89-14.98,1.58-1.52-2.3,1.06-5.64-.79-7.36-1.27-1.18-4.02-1.03-5.26.26-1.48,1.54.07,3.77-1.31,5.26-1.52,1.63-5.62,1.34-6.83-.53-1.36-2.1,1.75-4.93.26-7.36-.88-1.43-3.07-2.24-4.2-1.58-1.82,1.06.26,5.17-1.84,7.09-1.66,1.52-5.4,1.21-6.57-.53-1.66-2.45,2.73-6.4,1.05-8.93-1.14-1.73-4.66-2.15-6.31-.79-1.99,1.65-.16,5.05-2.1,6.57-1.76,1.38-5.63.46-6.31-1.31-.88-2.3,4.14-4.72,3.42-8.41-.26-1.34-1.27-2.82-2.36-2.89-2-.12-2.5,4.58-5.52,5.26-2.05.46-4.8-1.05-4.99-2.63-.34-2.8,7.49-4.47,7.36-8.15-.05-1.24-.99-2.58-2.1-2.89-2.22-.62-3.75,3.27-6.83,3.15-2.02-.08-4.23-1.86-4.2-3.42.04-2.72,6.81-3.52,6.83-6.31.01-1.6-2.19-2.91-3.42-3.42-3.73-1.54-6.72.96-7.62,0-1.78-1.9,5.33-16.46,13.66-16.55Z"/>
    <path class="cls-1" d="M304.72,387.73c-1.3,4.18,7.3,11.73,16.03,13.14,1.74.28,8.59,1.38,11.56-2.63,2.3-3.1,1.61-8.36-.26-9.2-1.33-.59-2.51,1.39-4.73,1.05-2.35-.36-3.08-2.89-4.73-4.47-4.5-4.28-16.54-2.15-17.87,2.1Z"/>
    <path class="cls-1" d="M302.09,373.28c.57,1.61,7.95-2.17,19.18.53,4.28,1.03,10.02,2.41,14.98,7.09,2.72,2.57,3.8,4.82,4.99,4.47,1.92-.56,2.87-7.51.26-12.61-3.72-7.29-13.86-9.2-20.23-8.93-10.87.45-19.84,7.61-19.18,9.46Z"/>
    <path class="cls-1" d="M158.09,404.81c4.9-1.38,8.79-1.71,16.55-2.36,14.63-1.23,17.53.78,18.92,2.36,1.55,1.77,3.16,5.29,1.84,7.36-2.98,4.68-17.52-3.43-30.22,3.42-2.34,1.26-3.34,2.34-3.15,2.89.68,2.04,17.13-4.86,24.18,2.1.72.71,2.25,2.22,1.84,3.42-1.27,3.7-19.49-.59-39.42,3.68-3.1.66-5.02,1.27-4.99,1.84.07,1.3,10.41,2.73,18.13,2.1,21.99-1.8,27.53-1.9,28.64.53.63,1.36-.23,3.36-1.31,4.47-4.36,4.48-14.65-3.22-24.7,1.58-.5.24-3.08,1.47-2.89,2.36.19.92,3.23,1.43,15.24,1.05,9.68-.3,13.23.12,16.82,1.84,1.58.76,5.74,2.75,5.52,4.73-.41,3.56-14.81,5.01-24.14,4.9-5.29-.06-14.97-.27-26.57-4.9-10.05-4.01-22.47-8.96-23.39-17.08-1.25-11.17,19.89-22.55,33.11-26.28Z"/>
    <path class="cls-1" d="M140.75,465.25c-1.33,1.98-2.87,5.75-1.31,7.62,1.66,2,6.31,1.18,8.93-1.05.38-.32,2.28-1.94,2.63-4.47.36-2.64-1.25-4.24-.53-4.99,1.06-1.11,4.66,2.15,6.83.79,1.26-.79,1.71-2.92,1.05-4.47-.84-1.98-3.24-2.48-4.73-2.36-1.7.13-2.51,1.1-4.73,2.89-5.26,4.26-6.42,3.47-8.15,6.04Z"/>
    <path class="cls-1" d="M136.28,457.1c2.01-1.49,3.06-4.61,2.1-6.57-1.07-2.2-4.4-2.37-9.46-2.63-4.15-.21-7.23-.32-10.25,1.58-1.97,1.24-4.52,3.72-3.94,5.26.49,1.31,2.88.94,8.67,1.58,8.48.93,10.56,2.51,12.88.79Z"/>
    <path class="cls-1" d="M122.35,445.28c-1.75,1.72-8.98-4.04-12.16-1.5-.25.2-.42.41-.45.45-1.81,2.19.61,5.29-.53,6.83-1.21,1.64-6.29,1.28-7.62-1.31-.8-1.57.05-3.41.79-4.99.48-1.04,2.27-4.72,6.57-6.57.58-.25,7.28-3.01,11.3.79,2.04,1.93,3.13,5.3,2.1,6.31Z"/>
    <path class="cls-1" d="M113.94,430.83c-5.7,5.12-15.89,2.64-21.55,0-2.84-1.33-10.92-5.1-10.77-9.99.19-6.59,15.19-10.97,24.18-12.09.74-.09,17.06-2.02,18.92,3.15.77,2.13-1.02,5.16-3.15,6.57-1.76,1.16-4.17.97-8.93.53-10.37-.96-13.07-1.29-14.41.39-.87,1.1-.99,2.84-.31,3.82.9,1.29,3.07,1.04,6.83.79,11.01-.73,11.83.11,12.09.53.87,1.41-.83,4.46-2.89,6.31Z"/>
    <path class="cls-1" d="M138.64,406.12c1.25-1.51,1.44-4.25.26-5.26-1.76-1.5-5.05,2.19-9.72,1.05-2.76-.67-5.02-2.79-4.73-3.68.34-1.03,4.06-.53,13.14-1.31,2.4-.21,4.09-.41,4.77-1.63.78-1.39.01-3.68-1.36-4.94-1.71-1.57-3.71-.96-9.99-.53-8.56.59-10.04-.2-12.09,1.58-2.78,2.41-2.87,6.32-2.89,7.09-.02.8-.04,5.36,3.15,7.88.98.77,1.84,1.02,11.3,1.05,5.62.02,7.11-.07,8.15-1.31Z"/>
    <path class="cls-1" d="M167.81,394.3c1.13,1.77.66,4.65-.79,5.78-1.4,1.1-3.67.31-8.15-1.31-3.33-1.21-6.06-2.2-9.46-4.47-3.61-2.41-6.12-4.08-7.51-7.38-.49-1.16-1.81-4.33-.38-6.81,1.58-2.73,5.55-2.97,8.67-3.15,5.06-.3,8.81,1.15,13.14,2.89,4.99,2,7.49,3.04,7.88,5.26.42,2.39-1.68,5.41-3.94,5.78-1.35.22-1.94-.63-6.83-3.68-3.83-2.38-5.24-2.96-6.9-2.81-1.29.12-3.18.73-3.35,1.76-.28,1.65,3.92,3.77,6.31,4.73,6.2,2.49,9.72.93,11.3,3.42Z"/>
  </g>
  <g id="Petalo_HSX" data-name="Petalo HSX">
    <path class="cls-1" d="M220.63,360.14c-.24-.99-4.35-1.38-7.88-.79-2.54.42-3.49,1.14-4.47.53-1.7-1.07-2.05-5.25-.26-6.83,2.53-2.24,7.6,2.29,10.51,0,2.06-1.63,2.12-5.97.53-7.09-1.98-1.4-5.63,2.81-8.15,1.31-1.84-1.1-2.28-4.8-1.05-5.78,1.72-1.37,5.81,3.26,9.72,1.58.21-.09,2-.86,2.1-2.1.19-2.41-6.27-3.77-6.04-5.78.14-1.25,2.81-2.38,4.99-2.1,1.63.21,1.97,1.06,4.73,2.1,2.21.83,3.31,1.24,3.94.79,2-1.44-3.44-9.47-1.05-11.82,1.36-1.34,5.11-.7,6.57,1.31,2.2,3.05-1.67,8.11.26,9.72.96.8,2.97.42,4.2-.53,3.2-2.45.36-8.06,3.15-10.25,2.43-1.9,7.75-.14,8.15,1.84.39,1.99-4.34,3.48-3.94,5.78.28,1.64,3.08,3.16,5.26,2.63,3.53-.87,3.26-6.63,6.04-7.09,2.82-.47,7.09,4.76,6.04,7.62-1.01,2.76-6.49,1.97-7.36,4.99-.42,1.46.34,3.44,1.58,3.94,2.63,1.06,5.7-5.3,8.93-4.47,2.43.62,4.19,5.11,2.89,7.09-1.55,2.37-6.71.04-9.2,3.15-.74.92-1.33,2.45-.79,3.15,1.4,1.81,8.82-3.7,11.04-1.58,1.46,1.39.52,5.92-1.84,7.09-2.85,1.42-6.56-2.68-8.67-1.05-.88.68-1.26,2.18-.79,3.15,1.19,2.44,7.06.13,8.67,2.63,1.3,2.01-.69,6.35-2.63,6.57-1.87.21-2.68-3.53-6.57-4.47-.48-.12-2.51-.61-3.15.26-1.11,1.51,3.47,5.06,2.36,7.62-.77,1.78-4.08,2.67-5.52,1.58-1.76-1.34.31-4.89-1.58-6.57-1.41-1.25-4.51-1-5.78.53-1.89,2.27,1.31,6.06-.53,8.15-1.34,1.52-4.76,1.48-6.04,0-1.53-1.76.84-4.53-.79-6.83-1.07-1.51-3.55-2.36-4.99-1.58-2.39,1.31-.17,6.18-2.89,8.67-2.35,2.15-7.32,1.55-8.15-.26-1.03-2.27,4.96-5.31,4.2-9.99-.24-1.51-1.22-3.32-2.36-3.42-2.41-.19-3.19,7.36-6.83,7.88-2.33.34-5.36-2.28-5.26-4.47.18-3.64,9.04-5.33,8.67-6.83Z"/>
    <path class="cls-3" d="M225.1,353.04c-.58-6.5,7-12.57,14.19-12.35,6.42.2,13.45,5.43,13.14,11.82-.32,6.45-7.94,10.68-14.19,10.51-5.84-.16-12.63-4.2-13.14-9.99Z"/>
    <path class="cls-1" d="M231.93,351.73c.36-2.31,3.42-3.9,6.04-3.68,2.28.2,5.18,1.85,5.26,4.47.07,2.57-2.64,4.53-4.99,4.73-3.3.29-6.73-2.8-6.31-5.52Z"/>
  </g>
  <g id="Petalo_HDX" data-name="Petalo HDX">
    <path class="cls-1" d="M382.76,346.47c1.18-.2,2.14-2.56,1.84-4.47-.43-2.76-3.3-3.33-3.15-4.99.21-2.3,6.01-4.58,7.88-2.89,1.71,1.54-.94,5.52,1.05,7.36,1.16,1.07,3.54,1.08,4.73,0,2.33-2.12-1.23-7.29.79-9.2,2.29-2.16,9.94,1.54,9.72,3.42-.13,1.12-2.97.94-3.94,3.15-.55,1.26-.33,2.89.53,3.94,1.26,1.55,3.8,1.68,5.52,1.05,4.08-1.49,3.45-7.14,6.57-7.88,2.87-.68,6.98,3.26,6.46,5.41-.5,2.06-4.96,1.32-6.73,4.58-1.07,1.98-.79,4.78.26,5.26,1.86.84,4.7-6.21,9.2-6.04,3.36.12,6.48,4.23,5.78,6.04-.73,1.9-5.44.69-6.83,3.42-.55,1.08-.54,2.7.26,3.42,1.84,1.64,6.33-2.85,8.67-1.31,2.1,1.38,1.8,7.13-.53,8.41-2.37,1.3-5.89-2.55-7.88-1.05-1.34,1-.22,3.1-1.84,4.47-1.63,1.38-3.99.28-4.73,1.58-.38.66-.07,1.47.26,2.36,1.02,2.72,2.72,2.97,3.42,4.73.87,2.2-.14,5.94-2.89,7.09-2.1.88-4.9.14-6.04-1.58-1.59-2.39,1.01-5.17-.53-7.09-1.3-1.62-4.89-1.81-6.83-.26-2.46,1.96-.72,5.45-3.15,7.36-2.03,1.6-5.89,1.23-7.09-.53-1.34-1.94,1.38-4.4,0-7.36-.83-1.78-2.94-3.29-4.47-2.89-2.39.62-1.7,5.45-4.2,6.31-2.06.7-5.46-1.55-5.78-3.94-.37-2.79,3.61-4.64,2.89-6.31-.53-1.23-3.26-1.48-5.26-1.05-3.26.69-3.83,3.01-5.78,2.89-3.01-.19-5.79-5.96-4.47-7.62,1.13-1.42,4.63.93,6.83-1.05,1.05-.94,1.68-2.76,1.05-3.68-1.35-1.99-7.32,2.07-10.77-.53-2.15-1.61-2.82-5.4-1.58-6.57,2.19-2.07,9.75,4.6,12.61,2.1.84-.73,1.13-2.14.79-3.15-1.03-3.03-7.47-1.74-8.41-4.2-.96-2.52,4.08-8.31,7.88-7.62,4.38.79,5.52,9.33,7.88,8.93Z"/>
    <path class="cls-3" d="M381.97,355.67c.97-5.72,8.63-9.41,14.98-8.67,4.9.57,11.23,4.03,11.82,9.72.65,6.27-6,11.95-12.35,12.35-7.8.49-15.54-6.94-14.45-13.4Z"/>
    <path class="cls-1" d="M393.01,357.51c-.51-2.74,1.94-5.51,4.73-5.52,2.97,0,5.35,3.1,4.73,5.78-.44,1.91-2.32,3.24-4.2,3.42-2.33.22-4.81-1.32-5.26-3.68Z"/>
  </g>
  <g id="Petalo_LDX" data-name="Petalo LDX">
    <path class="cls-1" d="M380.13,517.28c-5.2-.72-7.85,2.83-9.99,1.58-2.44-1.44-2.51-8.16.26-9.99,2.98-1.96,7.81,2.65,10.25.53,1.2-1.05,1.44-3.4.53-4.47-1.47-1.72-5.04.92-7.62-.79-2.28-1.51-3.23-6.04-1.58-7.88,3.38-3.78,16.12,3.21,17.61.53.63-1.14-1.15-3.4-1.58-3.94-2.27-2.88-4.86-2.43-5.52-4.47-.55-1.69.56-4.04,2.36-4.99,1.54-.81,3.44-.54,4.73.26,2.76,1.72,1.71,4.83,4.47,6.83,2.06,1.5,5.11,1.55,5.78.53.47-.71-.51-1.48-.79-3.68-.09-.72-.5-3.96,1.31-5.26,1.35-.97,3.76-.74,4.99.53,2.27,2.33-.56,7.11,1.05,8.15,1.18.76,3.02-1.57,8.41-3.15,3.25-.95,4.4-.64,5.05-.36,1.9.82,3.55,3.1,3.1,4.83-.81,3.07-7.94,3.1-7.88,4.47.03.75,2.24,1.43,4.2,1.58,4.62.34,6.52-2.37,9.2-1.31,1.98.78,3.45,3.25,2.89,4.47-.89,1.94-6.41-.49-9.46,2.63-1.25,1.27-2,3.38-1.31,4.2,1.5,1.81,8.66-3.94,11.56-1.58,1.53,1.25,1.61,4.55.26,5.78-1.92,1.75-5.89-1.42-8.15.53-1.17,1.01-1.54,3.1-.79,3.94,1.35,1.5,5.59-1.83,7.36-.26,1.3,1.16.91,4.67-1.05,6.31-2.02,1.69-5.07-2.78-8.41-1.58-1.76.64-3.29,2.59-2.97,3.99.58,2.57,6.96,1.6,7.97,4.42.91,2.57-3.06,7.09-5.26,6.57-1.95-.46-1.12-4.7-4.47-7.09-1.98-1.42-5.06-1.93-6.04-.79-1.84,2.15,5.36,8.24,3.42,12.35-1.67,3.52-9.57,4.59-11.82,1.84-2.64-3.21,3.3-10.58.53-13.14-1.03-.95-3.01-.99-4.29-.24-3.67,2.15-.35,10.02-3.86,12.33-2.04,1.34-5.93.48-7.09-1.58-2.21-3.91,6.16-10.77,3.94-13.93-.92-1.31-3.26-1.39-4.73-1.05-4.85,1.13-5.17,7.98-8.32,8.15-2.56.14-5.91-4.21-5.08-7.1,1.24-4.35,11.63-4.16,11.56-6.31-.04-1.12-2.7-2.08-4.73-2.36Z"/>
    <path class="cls-3" d="M386.44,509.92c.59-6.08,7.95-10.18,14.19-9.72,6.48.47,13.4,5.99,12.77,12.33-.6,6.05-7.78,10.01-13.79,9.73-6.67-.31-13.8-5.95-13.18-12.34Z"/>
    <path class="cls-1" d="M395.37,511.23c.36-2.75,3.53-4.57,6.31-4.47,2.49.1,5.42,1.78,5.78,4.47.41,3.03-2.63,5.92-5.78,6.04-3.4.14-6.71-2.96-6.31-6.04Z"/>
  </g>
  <g id="Petalo_LSX" data-name="Petalo LSX">
    <path class="cls-1" d="M223.52,482.07c.13.25.33.6.59,1.01.25.4,3.48,5.41,8.35,7.14,5.49,1.95,8.65-1.84,11.56.53,2.13,1.73.64,3.92,2.63,6.04,3.82,4.08,12.31-.79,15.24,2.89,1.78,2.25-.72,4.88,1.05,7.09,3.06,3.82,12.64-1.33,14.98,2.1,1.01,1.49.44,4.27-1.05,5.52-3.01,2.52-8.06-2.58-13.14-.26-3.28,1.5-5.41,5.57-4.47,7.09,1.7,2.75,12.79-3.65,15.77,0,1.68,2.06.52,7-2.1,8.41-3.35,1.8-7.18-3.21-14.45-2.1-.17.03-4.13.66-4.2,1.84-.13,2.16,12.93,2.56,13.66,6.83.45,2.62-3.75,6.58-6.83,6.04-3.99-.69-3.73-8.49-9.72-10.77-.5-.19-3.67-1.35-4.99,0-2.66,2.7,5.78,11.71,3.15,15.24-2.33,3.14-12.84,1.15-14.19-3.15-1.27-4.05,6.15-8.37,4.47-11.82-.86-1.76-3.82-2.74-5.52-1.84-2.97,1.59-.01,7.89-3.42,11.3-3.17,3.17-10.36,2.34-11.3,0-1.29-3.21,9.4-8.73,7.88-12.61-.55-1.42-2.62-2.33-4.2-2.1-2.98.44-2.96,4.74-6.83,6.57-2.85,1.35-6.33.66-6.57-.26-.39-1.54,8.4-3.21,8.93-7.88.19-1.62-.6-3.68-2.1-4.47-3.53-1.84-7.87,5.08-12.88,3.68-3.08-.86-5.51-4.61-4.73-6.57,1.4-3.54,13.16-1.11,13.66-3.42.28-1.28-3.1-3-3.42-3.15-7.52-3.76-14.13,1.14-16.82-1.84-2-2.22-.93-7.79,1.84-9.46,3.28-1.98,7.48,2.41,11.56,0,1.35-.8,2.81-2.41,2.63-3.94-.3-2.52-4.84-3.09-4.73-4.73.09-1.35,3.31-2.53,6.04-2.63,2.06-.08,2.68.5,7.09,1.31,4.64.86,5.11.44,5.26.26,1.08-1.28-1.67-5.3-3.42-7.62"/>
    <path class="cls-3" d="M221.15,511.76c.19-6.94,9.23-13.14,17.34-11.82,6.2,1.01,12.91,6.58,12.35,13.4-.5,6.09-6.53,10.15-11.56,11.04-8.42,1.48-18.33-5.21-18.13-12.61Z"/>
    <path class="cls-1" d="M230.35,514.39c-.56-3.13,2.47-6.21,5.52-6.83,4.22-.86,8.96,2.89,8.67,6.31-.23,2.66-3.49,4.68-6.31,4.99-3.07.34-7.29-1.18-7.88-4.47Z"/>
  </g>
  <text class="cls-2" transform="translate(173.69 296.68) rotate(-93.5)"><tspan x="0" y="0">G</tspan></text>
  <text class="cls-2" transform="translate(171.64 262.9) rotate(-80.57)"><tspan x="0" y="0">E</tspan></text>
  <text class="cls-2" transform="translate(174.67 234.77) rotate(-63.53)"><tspan x="0" y="0">M</tspan></text>
  <text class="cls-2" transform="translate(193.3 195.93) rotate(-41.54)"><tspan x="0" y="0">M</tspan></text>
  <text class="cls-2" transform="translate(226.35 167.9) rotate(-24.13)"><tspan x="0" y="0">E</tspan></text>
  <text class="cls-2" transform="translate(253.12 156.53) rotate(-15.59)"><tspan x="0" y="0"> </tspan></text>
  <text class="cls-2" transform="translate(264.78 152.36) rotate(-7.22)"><tspan x="0" y="0">D</tspan></text>
  <text class="cls-2" transform="translate(299.59 148.58) rotate(.89)"><tspan x="0" y="0">I</tspan></text>
  <text class="cls-2" transform="translate(314.9 148.82) rotate(5.25)"><tspan x="0" y="0"> </tspan></text>
  <text class="cls-2" transform="translate(327.38 149.44) rotate(12.44)"><tspan x="0" y="0">L</tspan></text>
  <text class="cls-2" transform="translate(353.18 154.36) rotate(24.58)"><tspan x="0" y="0">U</tspan></text>
  <text class="cls-2" transform="translate(385.06 168.96) rotate(39.12)"><tspan x="0" y="0">C</tspan></text>
  <text class="cls-2" transform="translate(407.97 187.18) rotate(52.83)"><tspan x="0" y="0">A</tspan></text>
  <text class="cls-2" transform="translate(427.76 211.71) rotate(69.64)"><tspan x="0" y="0">N</tspan></text>
  <text class="cls-2" transform="translate(439.93 247.85) rotate(83.28)"><tspan x="0" y="0">I</tspan></text>
  <text class="cls-2" transform="translate(442.69 261.92) rotate(95.22)"><tspan x="0" y="0">A</tspan></text>
</svg>